<svg xmlns="http://www.w3.org/2000/svg" width="60" height="60" viewBox="0 0 60 60">
    <defs>
        <clipPath id="clip-path">
            <circle id="Ellipse_9" cx="30" cy="30" r="30"/>
        </clipPath>
        <style>
            .cls-3{fill:#421800}.cls-4{fill:#f0d0b4}.cls-6{fill:#e7ecf2}
        </style>
    </defs>
    <g id="girl">
        <g id="Group_31">
            <circle id="Ellipse_8" cx="30" cy="30" r="30" fill="#d4dce6"/>
            <g id="Group_30" clip-path="url(#clip-path)">
                <path id="Path_51" d="M74.121 96.477v27.876l-35.321-.6V95.876z" class="cls-3" transform="translate(-26.427 -65.301)"/>
                <path id="Path_52" d="M78.915 29.768v8.22c0 .144 0 .289-.006.433 0 .118-.007.233-.013.351s-.01.21-.019.315c0 .075-.01.151-.016.226 0 .046-.006.088-.013.134-.006.082-.013.167-.026.249-.013.158-.033.312-.056.469 0 .04-.01.079-.016.118-.01.079-.023.158-.036.236v.01l-.059.341c-.029.158-.059.315-.092.469 0 .007 0 .013-.006.02a.524.524 0 0 1-.013.069c0 .007 0 .013-.006.02-.016.085-.036.167-.056.249a.629.629 0 0 1-.026.108c-.01.059-.026.118-.039.177-.01.033-.017.069-.03.1s-.016.059-.023.085c-.069.269-.147.531-.23.793-.039.125-.078.246-.121.371 0 .013-.01.026-.013.039l-.118.335-.04.1c-.039.1-.078.21-.121.315-.049.128-.1.253-.154.377s-.1.223-.144.334c-.007.02-.017.036-.023.056-.056.118-.108.236-.164.351s-.115.243-.177.364c-.118.239-.246.479-.374.711l-.177.315a19.332 19.332 0 0 1-1.675 2.439c-.082.108-.167.213-.256.315-.121.148-.246.292-.37.433-.1.118-.213.239-.325.354a.055.055 0 0 1-.013.016q-.472.507-.964.961c-.066.066-.135.125-.2.187-.112.1-.223.2-.338.3-.088.079-.18.154-.272.23-.236.193-.472.38-.711.554-.1.075-.2.148-.3.217-.164.118-.331.23-.5.338-.092.062-.187.122-.282.177-.335.207-.672.4-1.006.561-.082.043-.164.082-.246.121s-.167.078-.256.118q-.162.074-.325.138a1.033 1.033 0 0 1-.128.049c-.128.052-.259.1-.387.144-.161.059-.325.108-.485.154-.112.033-.226.062-.338.088a.046.046 0 0 1-.023.007c-.112.026-.223.053-.335.072a.794.794 0 0 1-.088.016c-.092.017-.184.033-.276.043a3.918 3.918 0 0 1-.393.043.948.948 0 0 1-.135.01c-.1.006-.206.01-.308.01h-.013q-.153 0-.305-.01a.733.733 0 0 1-.118-.01c-.092 0-.187-.013-.285-.026a.447.447 0 0 1-.062-.006c-.121-.017-.243-.036-.367-.059-.1-.016-.21-.039-.318-.065a9.426 9.426 0 0 1-1.721-.58 12.545 12.545 0 0 1-1.5-.793c-.253-.154-.505-.318-.754-.492-.125-.088-.249-.177-.374-.269q-.586-.428-1.158-.931c-.1-.1-.21-.19-.314-.288s-.21-.194-.312-.289c-.243-.232-.479-.472-.705-.725a.49.49 0 0 1-.043-.042q-.143-.153-.285-.315c-.262-.3-.518-.6-.761-.918-.1-.115-.184-.232-.272-.351q-.5-.659-.941-1.374c-.078-.128-.157-.259-.232-.387-.092-.154-.18-.312-.269-.469a17.881 17.881 0 0 1-.892-1.836c-.039-.092-.079-.184-.112-.276-.053-.118-.1-.239-.141-.357q-.1-.261-.187-.521c-.059-.174-.114-.351-.17-.528s-.1-.341-.148-.515-.1-.371-.144-.561c0-.02-.01-.04-.013-.059q-.093-.393-.167-.8c-.066-.354-.118-.715-.158-1.079-.016-.115-.026-.23-.036-.344s-.023-.239-.029-.361c-.017-.22-.026-.443-.033-.666 0-.144-.007-.289-.007-.433v-8.22A13.349 13.349 0 0 1 64.833 16.44a.127.127 0 0 1 .036 0l.276-.01c.138 0 .272-.007.41-.007h.013c.141 0 .282 0 .423.007.108 0 .217.007.325.013h.01a13.43 13.43 0 0 1 2.2.308 13.353 13.353 0 0 1 10.387 12.9c.002.038.002.078.002.117z" class="cls-4" transform="translate(-35.565 -11.184)"/>
                <path id="Path_53" d="M74.324 147.449H39.54a17.291 17.291 0 0 1 .911-5.567c.007-.017.01-.033.017-.049q.162-.477.354-.944c.125-.312.262-.616.406-.918a17.215 17.215 0 0 1 2.118-3.377c.21-.259.423-.512.643-.754.108-.125.223-.246.338-.367s.23-.236.348-.354a17.278 17.278 0 0 1 1.879-1.62c.331-.246.666-.475 1.013-.7.046-.029.092-.059.138-.085.128-.082.256-.161.387-.236.177-.1.357-.207.538-.305a.021.021 0 0 1 .013-.006c.141-.075.279-.157.416-.243a10.313 10.313 0 0 0 1.177-.82 10.969 10.969 0 0 0 4.151-8.606l2.534.013h.042l2.564.013a11.046 11.046 0 0 0 .164 1.905 10.853 10.853 0 0 0 .462 1.767 10.981 10.981 0 0 0 3.5 4.911 8.978 8.978 0 0 0 .728.538c.026.02.049.036.076.053.118.079.236.157.361.23s.272.164.41.239a.166.166 0 0 1 .059.03c.289.161.574.328.853.5a.735.735 0 0 1 .065.043c.112.069.226.141.335.22.272.174.538.364.8.561.331.246.652.508.967.777s.616.551.908.843a17.315 17.315 0 0 1 5.111 12.307z" class="cls-4" transform="translate(-26.931 -83.432)"/>
                <path id="Path_54" fill="#b34fc5" d="M74.324 165.816H39.54a17.291 17.291 0 0 1 .911-5.567c.007-.017.01-.033.017-.049q.162-.477.354-.944c.125-.312.262-.616.406-.918a17.214 17.214 0 0 1 2.118-3.377c.21-.259.423-.512.643-.754.108-.125.223-.246.338-.367s.23-.236.348-.354a17.275 17.275 0 0 1 1.879-1.62c.331-.246.666-.475 1.013-.7.046-.029.092-.059.138-.085.128-.082.256-.161.387-.236.177-.108.357-.21.538-.308a.012.012 0 0 1 .013 0c.141-.079.279-.157.416-.239a10.131 10.131 0 0 0 1.171-.826l.007.007a9.345 9.345 0 0 0 6.685 2.823h.042a9.36 9.36 0 0 0 6.685-2.82 8.83 8.83 0 0 0 .724.541c.026.02.049.036.076.053.118.079.239.154.361.23s.272.161.41.236a.352.352 0 0 1 .059.03c.289.16.574.328.853.5a.739.739 0 0 1 .065.043c.112.069.226.141.335.22.272.174.538.364.8.561h.007c.331.249.656.508.967.78s.616.551.908.843a17.31 17.31 0 0 1 5.11 12.308z" transform="translate(-26.931 -101.799)"/>
                <path id="Path_55" d="M62.239 63.343a.27.27 0 0 1-.076.023c-1.724.449-8.524-7.745-8.593-16.336a15.939 15.939 0 0 1 .122-2.085 21.916 21.916 0 0 1 1.862-5.426 11.5 11.5 0 0 0 1.079-4.312c0-7.869-2.282-5.3-8.646-9.551-1.538-1.023-2.63-1.862-3.486-2.544-2.364-1.875-2.964-2.547-6.206-2.547-4.125 0-5.764 7.164-6.233 10.226a27.217 27.217 0 0 0 1.544 13.721 11.5 11.5 0 0 1-1.544 12.1c-1.177 1.61-2.98 7.049-5.22 8.8a1.944 1.944 0 0 1-2.213.341c-6.118-3.131-2.436-13.18-.6-19.472 1.977-6.771 2.574-13.633 4.01-20.469 1.619-7.7 8.209-12.389 10.872-10.487.888-1.594 3.213-2.19 5.59-2.19a13.95 13.95 0 0 1 4.774.813c9.721 3.774 9.886 12.784 10.4 16.531.426 3.1 1.951 5.987 2.485 9.043v.01a11.5 11.5 0 0 1 .187 1.961c.023 3.577-.377 6 2.341 8.977 2.066 2.255.489 11.584-2.449 12.873z" class="cls-3" transform="translate(-14.469 -8.944)"/>
                <g id="Group_29" transform="translate(20.773 47.663)">
                    <path id="Path_56" d="M74.4 152.292l-.01.017v.006a4.744 4.744 0 0 1-7.465.672l-1.78-1.908c.3-.194.61-.374.924-.544a.012.012 0 0 1 .013 0c.141-.079.279-.157.416-.239a10.132 10.132 0 0 0 1.171-.826l.007.007a9.345 9.345 0 0 0 6.685 2.823h.039z" class="cls-6" transform="translate(-65.141 -149.462)"/>
                    <path id="Path_57" d="M103.411 151.118L101.657 153a4.744 4.744 0 0 1-7.466-.672v-.006l-.013-.017a9.36 9.36 0 0 0 6.685-2.82 8.823 8.823 0 0 0 .724.541c.026.02.049.036.076.053.118.079.239.154.361.23s.272.161.41.236a.351.351 0 0 1 .059.03c.289.16.574.327.853.5.023.013.042.025.065.043z" class="cls-6" transform="translate(-84.916 -149.475)"/>
                </g>
            </g>
        </g>
    </g>
</svg>
